# xmcd
#
# Track frame offsets:
# 150
# 14695
# 33780
# 46964
# 62962
# 82028
# 101606
# 116869
# 143016
# 159177
# 175377
# 193968
# 209418
# 224915
# 237672
#
# Disc length: 3397 seconds
#
#
# Revision: 0
# Processed by: cddbd v1.5.1PL2 Copyright (c) Steve Scherf et al.
# Submitted via: FreeRIP 2.944 
#
DISCID=e70d430f
DTITLE=LEONARDO - LEONARDO CANTA GRANDES SUCESSOS VOL.2
DYEAR=0006
DGENRE=Country
TTITLE0=01 TUDO PASSARA
TTITLE1=02 HEY
TTITLE2=03 EU SO TENHO UM CAMNHO
TTITLE3=04 O QUE E QUE HA
TTITLE4=05 DEUS, O QUE FAZER?
TTITLE5=06 ME ESQUECI DE VIVER
TTITLE6=07 SE AINDA EXISTE AMOR
TTITLE7=08 GAROTO DE ALUGUEL
TTITLE8=09 A ULTIMA VEZ
TTITLE9=10 DESENCONTRO DE PRIMAVERA
TTITLE10=11 LEMBRANÇAS
TTITLE11=12 SOL DE PRIMAVERA
TTITLE12=13 DUAS VEZES VOCE
TTITLE13=14 SERENATA
TTITLE14=15 PAREÇO UM MENINO
EXTD=
EXTT0=
EXTT1=
EXTT2=
EXTT3=
EXTT4=
EXTT5=
EXTT6=
EXTT7=
EXTT8=
EXTT9=
EXTT10=
EXTT11=
EXTT12=
EXTT13=
EXTT14=
PLAYORDER=
